<mxfile host="app.diagrams.net" agent="Mozilla/5.0 (Windows NT 10.0; Win64; x64) AppleWebKit/537.36 (KHTML, like Gecko) Chrome/124.0.0.0 Safari/537.36" version="24.7.7">
  <diagram name="PÃ¡gina-1" id="7MDap6JHgMLayFaoO9Ry">
    <mxGraphModel dx="724" dy="366" grid="1" gridSize="10" guides="1" tooltips="1" connect="1" arrows="1" fold="1" page="1" pageScale="1" pageWidth="827" pageHeight="1169" math="0" shadow="0">
      <root>
        <mxCell id="0" />
        <mxCell id="1" parent="0" />
        <mxCell id="vDmIGxy55OzrReuSafQs-21" value="" style="edgeStyle=orthogonalEdgeStyle;rounded=0;orthogonalLoop=1;jettySize=auto;html=1;" edge="1" parent="1" source="vDmIGxy55OzrReuSafQs-1" target="vDmIGxy55OzrReuSafQs-20">
          <mxGeometry relative="1" as="geometry" />
        </mxCell>
        <mxCell id="vDmIGxy55OzrReuSafQs-1" value="CLIENTE" style="rounded=0;whiteSpace=wrap;html=1;" vertex="1" parent="1">
          <mxGeometry x="10" y="20" width="120" height="60" as="geometry" />
        </mxCell>
        <mxCell id="vDmIGxy55OzrReuSafQs-2" value="nombre&lt;div&gt;&lt;br&gt;&lt;/div&gt;" style="ellipse;whiteSpace=wrap;html=1;" vertex="1" parent="1">
          <mxGeometry x="40" y="90" width="80" height="30" as="geometry" />
        </mxCell>
        <mxCell id="vDmIGxy55OzrReuSafQs-3" value="apellido" style="ellipse;whiteSpace=wrap;html=1;" vertex="1" parent="1">
          <mxGeometry x="40" y="120" width="80" height="30" as="geometry" />
        </mxCell>
        <mxCell id="vDmIGxy55OzrReuSafQs-4" value="direccion" style="ellipse;whiteSpace=wrap;html=1;" vertex="1" parent="1">
          <mxGeometry x="42.5" y="150" width="75" height="30" as="geometry" />
        </mxCell>
        <mxCell id="vDmIGxy55OzrReuSafQs-5" value="telefono" style="ellipse;whiteSpace=wrap;html=1;" vertex="1" parent="1">
          <mxGeometry x="45" y="180" width="70" height="30" as="geometry" />
        </mxCell>
        <mxCell id="vDmIGxy55OzrReuSafQs-6" value="tipo documento" style="ellipse;whiteSpace=wrap;html=1;" vertex="1" parent="1">
          <mxGeometry x="40" y="210" width="80" height="30" as="geometry" />
        </mxCell>
        <mxCell id="vDmIGxy55OzrReuSafQs-7" value="nro documento" style="ellipse;whiteSpace=wrap;html=1;" vertex="1" parent="1">
          <mxGeometry x="40" y="240" width="75" height="30" as="geometry" />
        </mxCell>
        <mxCell id="vDmIGxy55OzrReuSafQs-8" value="&lt;u&gt;cod cliente&lt;/u&gt;" style="ellipse;whiteSpace=wrap;html=1;" vertex="1" parent="1">
          <mxGeometry x="38.75" y="270" width="77.5" height="30" as="geometry" />
        </mxCell>
        <mxCell id="vDmIGxy55OzrReuSafQs-9" value="" style="endArrow=none;html=1;rounded=0;exitX=0;exitY=1;exitDx=0;exitDy=0;" edge="1" parent="1" source="vDmIGxy55OzrReuSafQs-1">
          <mxGeometry width="50" height="50" relative="1" as="geometry">
            <mxPoint x="390" y="300" as="sourcePoint" />
            <mxPoint x="10" y="290" as="targetPoint" />
          </mxGeometry>
        </mxCell>
        <mxCell id="vDmIGxy55OzrReuSafQs-10" value="" style="endArrow=classic;html=1;rounded=0;entryX=0.015;entryY=0.664;entryDx=0;entryDy=0;entryPerimeter=0;" edge="1" parent="1" target="vDmIGxy55OzrReuSafQs-8">
          <mxGeometry width="50" height="50" relative="1" as="geometry">
            <mxPoint x="10" y="290" as="sourcePoint" />
            <mxPoint x="440" y="250" as="targetPoint" />
          </mxGeometry>
        </mxCell>
        <mxCell id="vDmIGxy55OzrReuSafQs-11" value="" style="endArrow=classic;html=1;rounded=0;entryX=0.005;entryY=0.673;entryDx=0;entryDy=0;entryPerimeter=0;" edge="1" parent="1" target="vDmIGxy55OzrReuSafQs-7">
          <mxGeometry width="50" height="50" relative="1" as="geometry">
            <mxPoint x="10" y="260" as="sourcePoint" />
            <mxPoint x="150" y="210" as="targetPoint" />
          </mxGeometry>
        </mxCell>
        <mxCell id="vDmIGxy55OzrReuSafQs-12" value="" style="endArrow=classic;html=1;rounded=0;entryX=-0.007;entryY=0.348;entryDx=0;entryDy=0;entryPerimeter=0;" edge="1" parent="1" target="vDmIGxy55OzrReuSafQs-6">
          <mxGeometry width="50" height="50" relative="1" as="geometry">
            <mxPoint x="10" y="220" as="sourcePoint" />
            <mxPoint x="150" y="210" as="targetPoint" />
          </mxGeometry>
        </mxCell>
        <mxCell id="vDmIGxy55OzrReuSafQs-13" value="" style="endArrow=classic;html=1;rounded=0;entryX=0.019;entryY=0.357;entryDx=0;entryDy=0;entryPerimeter=0;" edge="1" parent="1" target="vDmIGxy55OzrReuSafQs-5">
          <mxGeometry width="50" height="50" relative="1" as="geometry">
            <mxPoint x="10" y="190" as="sourcePoint" />
            <mxPoint x="150" y="210" as="targetPoint" />
          </mxGeometry>
        </mxCell>
        <mxCell id="vDmIGxy55OzrReuSafQs-14" value="" style="endArrow=classic;html=1;rounded=0;" edge="1" parent="1">
          <mxGeometry width="50" height="50" relative="1" as="geometry">
            <mxPoint x="10" y="160" as="sourcePoint" />
            <mxPoint x="40" y="160" as="targetPoint" />
          </mxGeometry>
        </mxCell>
        <mxCell id="vDmIGxy55OzrReuSafQs-17" value="" style="endArrow=classic;html=1;rounded=0;" edge="1" parent="1">
          <mxGeometry width="50" height="50" relative="1" as="geometry">
            <mxPoint x="8.75" y="134.71" as="sourcePoint" />
            <mxPoint x="38.75" y="134.71" as="targetPoint" />
          </mxGeometry>
        </mxCell>
        <mxCell id="vDmIGxy55OzrReuSafQs-19" value="" style="endArrow=classic;html=1;rounded=0;" edge="1" parent="1">
          <mxGeometry width="50" height="50" relative="1" as="geometry">
            <mxPoint x="10" y="104.71000000000001" as="sourcePoint" />
            <mxPoint x="40" y="104.71000000000001" as="targetPoint" />
            <Array as="points">
              <mxPoint x="21.25" y="105" />
            </Array>
          </mxGeometry>
        </mxCell>
        <mxCell id="vDmIGxy55OzrReuSafQs-23" value="" style="edgeStyle=orthogonalEdgeStyle;rounded=0;orthogonalLoop=1;jettySize=auto;html=1;" edge="1" parent="1" source="vDmIGxy55OzrReuSafQs-20" target="vDmIGxy55OzrReuSafQs-22">
          <mxGeometry relative="1" as="geometry" />
        </mxCell>
        <mxCell id="vDmIGxy55OzrReuSafQs-20" value="realiza" style="rhombus;whiteSpace=wrap;html=1;rounded=0;" vertex="1" parent="1">
          <mxGeometry x="230" y="10" width="80" height="80" as="geometry" />
        </mxCell>
        <mxCell id="vDmIGxy55OzrReuSafQs-40" value="" style="edgeStyle=orthogonalEdgeStyle;rounded=0;orthogonalLoop=1;jettySize=auto;html=1;" edge="1" parent="1" source="vDmIGxy55OzrReuSafQs-22" target="vDmIGxy55OzrReuSafQs-39">
          <mxGeometry relative="1" as="geometry" />
        </mxCell>
        <mxCell id="vDmIGxy55OzrReuSafQs-52" value="" style="edgeStyle=orthogonalEdgeStyle;rounded=0;orthogonalLoop=1;jettySize=auto;html=1;" edge="1" parent="1" source="vDmIGxy55OzrReuSafQs-22" target="vDmIGxy55OzrReuSafQs-51">
          <mxGeometry relative="1" as="geometry" />
        </mxCell>
        <mxCell id="vDmIGxy55OzrReuSafQs-22" value="CARRITO" style="whiteSpace=wrap;html=1;rounded=0;" vertex="1" parent="1">
          <mxGeometry x="370" y="20" width="120" height="60" as="geometry" />
        </mxCell>
        <mxCell id="vDmIGxy55OzrReuSafQs-24" value="cod compra" style="ellipse;whiteSpace=wrap;html=1;fontStyle=4" vertex="1" parent="1">
          <mxGeometry x="470" y="90" width="80" height="30" as="geometry" />
        </mxCell>
        <mxCell id="vDmIGxy55OzrReuSafQs-25" value="monto total" style="ellipse;whiteSpace=wrap;html=1;" vertex="1" parent="1">
          <mxGeometry x="471.25" y="120" width="80" height="30" as="geometry" />
        </mxCell>
        <mxCell id="vDmIGxy55OzrReuSafQs-26" value="fecha compra" style="ellipse;whiteSpace=wrap;html=1;" vertex="1" parent="1">
          <mxGeometry x="473.75" y="150" width="75" height="30" as="geometry" />
        </mxCell>
        <mxCell id="vDmIGxy55OzrReuSafQs-27" value="hora compra" style="ellipse;whiteSpace=wrap;html=1;" vertex="1" parent="1">
          <mxGeometry x="476.25" y="180" width="70" height="30" as="geometry" />
        </mxCell>
        <mxCell id="vDmIGxy55OzrReuSafQs-28" value="forma pago" style="ellipse;whiteSpace=wrap;html=1;" vertex="1" parent="1">
          <mxGeometry x="471.25" y="210" width="80" height="30" as="geometry" />
        </mxCell>
        <mxCell id="vDmIGxy55OzrReuSafQs-29" value="condicion iva" style="ellipse;whiteSpace=wrap;html=1;" vertex="1" parent="1">
          <mxGeometry x="471.25" y="240" width="75" height="30" as="geometry" />
        </mxCell>
        <mxCell id="vDmIGxy55OzrReuSafQs-32" value="" style="endArrow=classic;html=1;rounded=0;entryX=0.005;entryY=0.673;entryDx=0;entryDy=0;entryPerimeter=0;" edge="1" target="vDmIGxy55OzrReuSafQs-29" parent="1">
          <mxGeometry width="50" height="50" relative="1" as="geometry">
            <mxPoint x="441.25" y="260" as="sourcePoint" />
            <mxPoint x="581.25" y="210" as="targetPoint" />
          </mxGeometry>
        </mxCell>
        <mxCell id="vDmIGxy55OzrReuSafQs-33" value="" style="endArrow=classic;html=1;rounded=0;entryX=-0.007;entryY=0.348;entryDx=0;entryDy=0;entryPerimeter=0;" edge="1" target="vDmIGxy55OzrReuSafQs-28" parent="1">
          <mxGeometry width="50" height="50" relative="1" as="geometry">
            <mxPoint x="441.25" y="220" as="sourcePoint" />
            <mxPoint x="581.25" y="210" as="targetPoint" />
          </mxGeometry>
        </mxCell>
        <mxCell id="vDmIGxy55OzrReuSafQs-34" value="" style="endArrow=classic;html=1;rounded=0;entryX=0.019;entryY=0.357;entryDx=0;entryDy=0;entryPerimeter=0;" edge="1" target="vDmIGxy55OzrReuSafQs-27" parent="1">
          <mxGeometry width="50" height="50" relative="1" as="geometry">
            <mxPoint x="441.25" y="190" as="sourcePoint" />
            <mxPoint x="581.25" y="210" as="targetPoint" />
          </mxGeometry>
        </mxCell>
        <mxCell id="vDmIGxy55OzrReuSafQs-35" value="" style="endArrow=classic;html=1;rounded=0;" edge="1" parent="1">
          <mxGeometry width="50" height="50" relative="1" as="geometry">
            <mxPoint x="441.25" y="160" as="sourcePoint" />
            <mxPoint x="471.25" y="160" as="targetPoint" />
          </mxGeometry>
        </mxCell>
        <mxCell id="vDmIGxy55OzrReuSafQs-36" value="" style="endArrow=classic;html=1;rounded=0;" edge="1" parent="1">
          <mxGeometry width="50" height="50" relative="1" as="geometry">
            <mxPoint x="440" y="134.71" as="sourcePoint" />
            <mxPoint x="470" y="134.71" as="targetPoint" />
          </mxGeometry>
        </mxCell>
        <mxCell id="vDmIGxy55OzrReuSafQs-37" value="" style="endArrow=classic;html=1;rounded=0;" edge="1" parent="1">
          <mxGeometry width="50" height="50" relative="1" as="geometry">
            <mxPoint x="441.25" y="104.71000000000001" as="sourcePoint" />
            <mxPoint x="471.25" y="104.71000000000001" as="targetPoint" />
            <Array as="points">
              <mxPoint x="452.5" y="105" />
            </Array>
          </mxGeometry>
        </mxCell>
        <mxCell id="vDmIGxy55OzrReuSafQs-38" value="" style="endArrow=none;html=1;rounded=0;" edge="1" parent="1">
          <mxGeometry width="50" height="50" relative="1" as="geometry">
            <mxPoint x="440" y="260" as="sourcePoint" />
            <mxPoint x="440" y="80" as="targetPoint" />
          </mxGeometry>
        </mxCell>
        <mxCell id="vDmIGxy55OzrReuSafQs-42" value="" style="edgeStyle=orthogonalEdgeStyle;rounded=0;orthogonalLoop=1;jettySize=auto;html=1;" edge="1" parent="1" source="vDmIGxy55OzrReuSafQs-39" target="vDmIGxy55OzrReuSafQs-41">
          <mxGeometry relative="1" as="geometry" />
        </mxCell>
        <mxCell id="vDmIGxy55OzrReuSafQs-39" value="aplica" style="rhombus;whiteSpace=wrap;html=1;rounded=0;" vertex="1" parent="1">
          <mxGeometry x="310" y="120" width="80" height="70" as="geometry" />
        </mxCell>
        <mxCell id="vDmIGxy55OzrReuSafQs-41" value="IVA" style="whiteSpace=wrap;html=1;rounded=0;" vertex="1" parent="1">
          <mxGeometry x="290" y="290" width="120" height="30" as="geometry" />
        </mxCell>
        <mxCell id="vDmIGxy55OzrReuSafQs-43" value="cod Iva" style="ellipse;whiteSpace=wrap;html=1;fontStyle=4" vertex="1" parent="1">
          <mxGeometry x="350" y="330" width="80" height="30" as="geometry" />
        </mxCell>
        <mxCell id="vDmIGxy55OzrReuSafQs-44" value="descripcion" style="ellipse;whiteSpace=wrap;html=1;" vertex="1" parent="1">
          <mxGeometry x="350" y="370" width="80" height="30" as="geometry" />
        </mxCell>
        <mxCell id="vDmIGxy55OzrReuSafQs-46" value="" style="endArrow=classic;html=1;rounded=0;" edge="1" parent="1">
          <mxGeometry width="50" height="50" relative="1" as="geometry">
            <mxPoint x="320" y="390.00000000000006" as="sourcePoint" />
            <mxPoint x="350" y="390.00000000000006" as="targetPoint" />
          </mxGeometry>
        </mxCell>
        <mxCell id="vDmIGxy55OzrReuSafQs-47" value="" style="endArrow=classic;html=1;rounded=0;" edge="1" parent="1">
          <mxGeometry width="50" height="50" relative="1" as="geometry">
            <mxPoint x="321.25" y="344.71000000000004" as="sourcePoint" />
            <mxPoint x="351.25" y="344.71000000000004" as="targetPoint" />
            <Array as="points">
              <mxPoint x="332.5" y="345" />
            </Array>
          </mxGeometry>
        </mxCell>
        <mxCell id="vDmIGxy55OzrReuSafQs-49" value="" style="endArrow=none;html=1;rounded=0;entryX=0.25;entryY=1;entryDx=0;entryDy=0;" edge="1" parent="1" target="vDmIGxy55OzrReuSafQs-41">
          <mxGeometry width="50" height="50" relative="1" as="geometry">
            <mxPoint x="320" y="360" as="sourcePoint" />
            <mxPoint x="340" y="320" as="targetPoint" />
            <Array as="points">
              <mxPoint x="320" y="390" />
            </Array>
          </mxGeometry>
        </mxCell>
        <mxCell id="vDmIGxy55OzrReuSafQs-54" value="" style="edgeStyle=orthogonalEdgeStyle;rounded=0;orthogonalLoop=1;jettySize=auto;html=1;" edge="1" parent="1" source="vDmIGxy55OzrReuSafQs-51" target="vDmIGxy55OzrReuSafQs-53">
          <mxGeometry relative="1" as="geometry" />
        </mxCell>
        <mxCell id="vDmIGxy55OzrReuSafQs-51" value="contiene" style="rhombus;whiteSpace=wrap;html=1;rounded=0;" vertex="1" parent="1">
          <mxGeometry x="600" y="10" width="70" height="80" as="geometry" />
        </mxCell>
        <mxCell id="vDmIGxy55OzrReuSafQs-69" value="" style="edgeStyle=orthogonalEdgeStyle;rounded=0;orthogonalLoop=1;jettySize=auto;html=1;" edge="1" parent="1" source="vDmIGxy55OzrReuSafQs-53" target="vDmIGxy55OzrReuSafQs-68">
          <mxGeometry relative="1" as="geometry" />
        </mxCell>
        <mxCell id="vDmIGxy55OzrReuSafQs-53" value="DETALLE CARRITO" style="whiteSpace=wrap;html=1;rounded=0;" vertex="1" parent="1">
          <mxGeometry x="730" y="20" width="120" height="60" as="geometry" />
        </mxCell>
        <mxCell id="vDmIGxy55OzrReuSafQs-55" value="cod detalle" style="ellipse;whiteSpace=wrap;html=1;fontStyle=4" vertex="1" parent="1">
          <mxGeometry x="780" y="90" width="80" height="30" as="geometry" />
        </mxCell>
        <mxCell id="vDmIGxy55OzrReuSafQs-56" value="cod_compra" style="ellipse;whiteSpace=wrap;html=1;" vertex="1" parent="1">
          <mxGeometry x="781.25" y="120" width="80" height="30" as="geometry" />
        </mxCell>
        <mxCell id="vDmIGxy55OzrReuSafQs-57" value="cod_producto" style="ellipse;whiteSpace=wrap;html=1;" vertex="1" parent="1">
          <mxGeometry x="783.75" y="150" width="75" height="30" as="geometry" />
        </mxCell>
        <mxCell id="vDmIGxy55OzrReuSafQs-58" value="cant prod" style="ellipse;whiteSpace=wrap;html=1;" vertex="1" parent="1">
          <mxGeometry x="786.25" y="180" width="70" height="30" as="geometry" />
        </mxCell>
        <mxCell id="vDmIGxy55OzrReuSafQs-59" value="precio prod" style="ellipse;whiteSpace=wrap;html=1;" vertex="1" parent="1">
          <mxGeometry x="781.25" y="210" width="80" height="30" as="geometry" />
        </mxCell>
        <mxCell id="vDmIGxy55OzrReuSafQs-60" value="precio subtotal" style="ellipse;whiteSpace=wrap;html=1;" vertex="1" parent="1">
          <mxGeometry x="781.25" y="240" width="75" height="30" as="geometry" />
        </mxCell>
        <mxCell id="vDmIGxy55OzrReuSafQs-61" value="" style="endArrow=classic;html=1;rounded=0;entryX=0.005;entryY=0.673;entryDx=0;entryDy=0;entryPerimeter=0;" edge="1" target="vDmIGxy55OzrReuSafQs-60" parent="1">
          <mxGeometry width="50" height="50" relative="1" as="geometry">
            <mxPoint x="751.25" y="260" as="sourcePoint" />
            <mxPoint x="891.25" y="210" as="targetPoint" />
          </mxGeometry>
        </mxCell>
        <mxCell id="vDmIGxy55OzrReuSafQs-62" value="" style="endArrow=classic;html=1;rounded=0;entryX=-0.007;entryY=0.348;entryDx=0;entryDy=0;entryPerimeter=0;" edge="1" target="vDmIGxy55OzrReuSafQs-59" parent="1">
          <mxGeometry width="50" height="50" relative="1" as="geometry">
            <mxPoint x="751.25" y="220" as="sourcePoint" />
            <mxPoint x="891.25" y="210" as="targetPoint" />
          </mxGeometry>
        </mxCell>
        <mxCell id="vDmIGxy55OzrReuSafQs-63" value="" style="endArrow=classic;html=1;rounded=0;entryX=0.019;entryY=0.357;entryDx=0;entryDy=0;entryPerimeter=0;" edge="1" target="vDmIGxy55OzrReuSafQs-58" parent="1">
          <mxGeometry width="50" height="50" relative="1" as="geometry">
            <mxPoint x="751.25" y="190" as="sourcePoint" />
            <mxPoint x="891.25" y="210" as="targetPoint" />
          </mxGeometry>
        </mxCell>
        <mxCell id="vDmIGxy55OzrReuSafQs-64" value="" style="endArrow=classic;html=1;rounded=0;" edge="1" parent="1">
          <mxGeometry width="50" height="50" relative="1" as="geometry">
            <mxPoint x="751.25" y="160" as="sourcePoint" />
            <mxPoint x="781.25" y="160" as="targetPoint" />
          </mxGeometry>
        </mxCell>
        <mxCell id="vDmIGxy55OzrReuSafQs-65" value="" style="endArrow=classic;html=1;rounded=0;" edge="1" parent="1">
          <mxGeometry width="50" height="50" relative="1" as="geometry">
            <mxPoint x="750" y="134.71" as="sourcePoint" />
            <mxPoint x="780" y="134.71" as="targetPoint" />
          </mxGeometry>
        </mxCell>
        <mxCell id="vDmIGxy55OzrReuSafQs-66" value="" style="endArrow=classic;html=1;rounded=0;" edge="1" parent="1">
          <mxGeometry width="50" height="50" relative="1" as="geometry">
            <mxPoint x="751.25" y="104.71000000000001" as="sourcePoint" />
            <mxPoint x="781.25" y="104.71000000000001" as="targetPoint" />
            <Array as="points">
              <mxPoint x="762.5" y="105" />
            </Array>
          </mxGeometry>
        </mxCell>
        <mxCell id="vDmIGxy55OzrReuSafQs-67" value="" style="endArrow=none;html=1;rounded=0;entryX=0.169;entryY=1.017;entryDx=0;entryDy=0;entryPerimeter=0;" edge="1" parent="1" target="vDmIGxy55OzrReuSafQs-53">
          <mxGeometry width="50" height="50" relative="1" as="geometry">
            <mxPoint x="750" y="260" as="sourcePoint" />
            <mxPoint x="760" y="170" as="targetPoint" />
          </mxGeometry>
        </mxCell>
        <mxCell id="vDmIGxy55OzrReuSafQs-71" value="" style="edgeStyle=orthogonalEdgeStyle;rounded=0;orthogonalLoop=1;jettySize=auto;html=1;" edge="1" parent="1" source="vDmIGxy55OzrReuSafQs-68" target="vDmIGxy55OzrReuSafQs-70">
          <mxGeometry relative="1" as="geometry" />
        </mxCell>
        <mxCell id="vDmIGxy55OzrReuSafQs-68" value="incluye" style="rhombus;whiteSpace=wrap;html=1;rounded=0;" vertex="1" parent="1">
          <mxGeometry x="950" y="10" width="80" height="80" as="geometry" />
        </mxCell>
        <mxCell id="vDmIGxy55OzrReuSafQs-85" value="" style="edgeStyle=orthogonalEdgeStyle;rounded=0;orthogonalLoop=1;jettySize=auto;html=1;" edge="1" parent="1" target="vDmIGxy55OzrReuSafQs-86">
          <mxGeometry relative="1" as="geometry">
            <mxPoint x="1120.0285714285715" y="70" as="sourcePoint" />
            <mxPoint x="1060" y="140" as="targetPoint" />
            <Array as="points">
              <mxPoint x="1120" y="90" />
              <mxPoint x="1060" y="90" />
            </Array>
          </mxGeometry>
        </mxCell>
        <mxCell id="vDmIGxy55OzrReuSafQs-70" value="PRODUCTO" style="whiteSpace=wrap;html=1;rounded=0;" vertex="1" parent="1">
          <mxGeometry x="1090" y="20" width="120" height="60" as="geometry" />
        </mxCell>
        <mxCell id="vDmIGxy55OzrReuSafQs-72" value="cod producto" style="ellipse;whiteSpace=wrap;html=1;fontStyle=4" vertex="1" parent="1">
          <mxGeometry x="1160" y="90" width="80" height="30" as="geometry" />
        </mxCell>
        <mxCell id="vDmIGxy55OzrReuSafQs-73" value="nombre" style="ellipse;whiteSpace=wrap;html=1;" vertex="1" parent="1">
          <mxGeometry x="1161.25" y="120" width="80" height="30" as="geometry" />
        </mxCell>
        <mxCell id="vDmIGxy55OzrReuSafQs-74" value="descripcion" style="ellipse;whiteSpace=wrap;html=1;" vertex="1" parent="1">
          <mxGeometry x="1163.75" y="150" width="75" height="30" as="geometry" />
        </mxCell>
        <mxCell id="vDmIGxy55OzrReuSafQs-75" value="peso" style="ellipse;whiteSpace=wrap;html=1;" vertex="1" parent="1">
          <mxGeometry x="1166.25" y="180" width="70" height="30" as="geometry" />
        </mxCell>
        <mxCell id="vDmIGxy55OzrReuSafQs-76" value="stock" style="ellipse;whiteSpace=wrap;html=1;" vertex="1" parent="1">
          <mxGeometry x="1161.25" y="210" width="80" height="30" as="geometry" />
        </mxCell>
        <mxCell id="vDmIGxy55OzrReuSafQs-77" value="precio" style="ellipse;whiteSpace=wrap;html=1;" vertex="1" parent="1">
          <mxGeometry x="1161.25" y="240" width="75" height="30" as="geometry" />
        </mxCell>
        <mxCell id="vDmIGxy55OzrReuSafQs-78" value="" style="endArrow=classic;html=1;rounded=0;entryX=0.005;entryY=0.673;entryDx=0;entryDy=0;entryPerimeter=0;" edge="1" target="vDmIGxy55OzrReuSafQs-77" parent="1">
          <mxGeometry width="50" height="50" relative="1" as="geometry">
            <mxPoint x="1131.25" y="260" as="sourcePoint" />
            <mxPoint x="1271.25" y="210" as="targetPoint" />
          </mxGeometry>
        </mxCell>
        <mxCell id="vDmIGxy55OzrReuSafQs-79" value="" style="endArrow=classic;html=1;rounded=0;entryX=-0.007;entryY=0.348;entryDx=0;entryDy=0;entryPerimeter=0;" edge="1" target="vDmIGxy55OzrReuSafQs-76" parent="1">
          <mxGeometry width="50" height="50" relative="1" as="geometry">
            <mxPoint x="1131.25" y="220" as="sourcePoint" />
            <mxPoint x="1271.25" y="210" as="targetPoint" />
          </mxGeometry>
        </mxCell>
        <mxCell id="vDmIGxy55OzrReuSafQs-80" value="" style="endArrow=classic;html=1;rounded=0;entryX=0.019;entryY=0.357;entryDx=0;entryDy=0;entryPerimeter=0;" edge="1" target="vDmIGxy55OzrReuSafQs-75" parent="1">
          <mxGeometry width="50" height="50" relative="1" as="geometry">
            <mxPoint x="1131.25" y="190" as="sourcePoint" />
            <mxPoint x="1271.25" y="210" as="targetPoint" />
          </mxGeometry>
        </mxCell>
        <mxCell id="vDmIGxy55OzrReuSafQs-81" value="" style="endArrow=classic;html=1;rounded=0;" edge="1" parent="1">
          <mxGeometry width="50" height="50" relative="1" as="geometry">
            <mxPoint x="1131.25" y="160" as="sourcePoint" />
            <mxPoint x="1161.25" y="160" as="targetPoint" />
          </mxGeometry>
        </mxCell>
        <mxCell id="vDmIGxy55OzrReuSafQs-82" value="" style="endArrow=classic;html=1;rounded=0;" edge="1" parent="1">
          <mxGeometry width="50" height="50" relative="1" as="geometry">
            <mxPoint x="1130" y="134.71" as="sourcePoint" />
            <mxPoint x="1160" y="134.71" as="targetPoint" />
          </mxGeometry>
        </mxCell>
        <mxCell id="vDmIGxy55OzrReuSafQs-83" value="" style="endArrow=classic;html=1;rounded=0;" edge="1" parent="1">
          <mxGeometry width="50" height="50" relative="1" as="geometry">
            <mxPoint x="1131.25" y="104.71000000000001" as="sourcePoint" />
            <mxPoint x="1161.25" y="104.71000000000001" as="targetPoint" />
            <Array as="points">
              <mxPoint x="1142.5" y="105" />
            </Array>
          </mxGeometry>
        </mxCell>
        <mxCell id="vDmIGxy55OzrReuSafQs-84" value="" style="endArrow=none;html=1;rounded=0;entryX=0.32;entryY=1.04;entryDx=0;entryDy=0;entryPerimeter=0;" edge="1" parent="1" target="vDmIGxy55OzrReuSafQs-70">
          <mxGeometry width="50" height="50" relative="1" as="geometry">
            <mxPoint x="1130" y="260" as="sourcePoint" />
            <mxPoint x="990" y="130" as="targetPoint" />
          </mxGeometry>
        </mxCell>
        <mxCell id="vDmIGxy55OzrReuSafQs-90" value="" style="edgeStyle=orthogonalEdgeStyle;rounded=0;orthogonalLoop=1;jettySize=auto;html=1;" edge="1" parent="1" source="vDmIGxy55OzrReuSafQs-86" target="vDmIGxy55OzrReuSafQs-89">
          <mxGeometry relative="1" as="geometry" />
        </mxCell>
        <mxCell id="vDmIGxy55OzrReuSafQs-86" value="tiene" style="rhombus;whiteSpace=wrap;html=1;" vertex="1" parent="1">
          <mxGeometry x="1020" y="130" width="80" height="60" as="geometry" />
        </mxCell>
        <mxCell id="vDmIGxy55OzrReuSafQs-89" value="HISTORIAL PRECIO PRODUCTO" style="whiteSpace=wrap;html=1;" vertex="1" parent="1">
          <mxGeometry x="1000" y="280" width="120" height="40" as="geometry" />
        </mxCell>
        <mxCell id="vDmIGxy55OzrReuSafQs-91" value="cod producto" style="ellipse;whiteSpace=wrap;html=1;fontStyle=4" vertex="1" parent="1">
          <mxGeometry x="1070" y="330" width="80" height="30" as="geometry" />
        </mxCell>
        <mxCell id="vDmIGxy55OzrReuSafQs-92" value="fecha cambio" style="ellipse;whiteSpace=wrap;html=1;" vertex="1" parent="1">
          <mxGeometry x="1071.25" y="360" width="80" height="30" as="geometry" />
        </mxCell>
        <mxCell id="vDmIGxy55OzrReuSafQs-93" value="precio" style="ellipse;whiteSpace=wrap;html=1;" vertex="1" parent="1">
          <mxGeometry x="1073.75" y="390" width="75" height="30" as="geometry" />
        </mxCell>
        <mxCell id="vDmIGxy55OzrReuSafQs-94" value="" style="endArrow=classic;html=1;rounded=0;" edge="1" parent="1">
          <mxGeometry width="50" height="50" relative="1" as="geometry">
            <mxPoint x="1041.25" y="400" as="sourcePoint" />
            <mxPoint x="1071.25" y="400" as="targetPoint" />
          </mxGeometry>
        </mxCell>
        <mxCell id="vDmIGxy55OzrReuSafQs-95" value="" style="endArrow=classic;html=1;rounded=0;" edge="1" parent="1">
          <mxGeometry width="50" height="50" relative="1" as="geometry">
            <mxPoint x="1040" y="374.71000000000004" as="sourcePoint" />
            <mxPoint x="1070" y="374.71000000000004" as="targetPoint" />
          </mxGeometry>
        </mxCell>
        <mxCell id="vDmIGxy55OzrReuSafQs-96" value="" style="endArrow=classic;html=1;rounded=0;" edge="1" parent="1">
          <mxGeometry width="50" height="50" relative="1" as="geometry">
            <mxPoint x="1041.25" y="344.71000000000004" as="sourcePoint" />
            <mxPoint x="1071.25" y="344.71000000000004" as="targetPoint" />
            <Array as="points">
              <mxPoint x="1052.5" y="345" />
            </Array>
          </mxGeometry>
        </mxCell>
        <mxCell id="vDmIGxy55OzrReuSafQs-97" value="" style="endArrow=none;html=1;rounded=0;" edge="1" parent="1">
          <mxGeometry width="50" height="50" relative="1" as="geometry">
            <mxPoint x="1040" y="400" as="sourcePoint" />
            <mxPoint x="1040" y="320" as="targetPoint" />
          </mxGeometry>
        </mxCell>
        <mxCell id="vDmIGxy55OzrReuSafQs-99" value="1:N" style="text;html=1;align=center;verticalAlign=middle;whiteSpace=wrap;rounded=0;" vertex="1" parent="1">
          <mxGeometry x="240" y="90" width="60" height="30" as="geometry" />
        </mxCell>
        <mxCell id="vDmIGxy55OzrReuSafQs-100" value="N:1" style="text;html=1;align=center;verticalAlign=middle;whiteSpace=wrap;rounded=0;" vertex="1" parent="1">
          <mxGeometry x="300" y="190" width="60" height="30" as="geometry" />
        </mxCell>
        <mxCell id="vDmIGxy55OzrReuSafQs-101" value="1:1" style="text;html=1;align=center;verticalAlign=middle;whiteSpace=wrap;rounded=0;" vertex="1" parent="1">
          <mxGeometry x="605" y="90" width="60" height="30" as="geometry" />
        </mxCell>
        <mxCell id="vDmIGxy55OzrReuSafQs-102" value="N:M" style="text;html=1;align=center;verticalAlign=middle;whiteSpace=wrap;rounded=0;" vertex="1" parent="1">
          <mxGeometry x="960" y="90" width="60" height="30" as="geometry" />
        </mxCell>
        <mxCell id="vDmIGxy55OzrReuSafQs-103" value="1:N" style="text;html=1;align=center;verticalAlign=middle;whiteSpace=wrap;rounded=0;" vertex="1" parent="1">
          <mxGeometry x="1000" y="200" width="60" height="30" as="geometry" />
        </mxCell>
        <mxCell id="vDmIGxy55OzrReuSafQs-104" value="1..1" style="text;html=1;align=center;verticalAlign=middle;whiteSpace=wrap;rounded=0;" vertex="1" parent="1">
          <mxGeometry x="130" y="50" width="60" height="30" as="geometry" />
        </mxCell>
        <mxCell id="vDmIGxy55OzrReuSafQs-105" value="0..N" style="text;html=1;align=center;verticalAlign=middle;whiteSpace=wrap;rounded=0;" vertex="1" parent="1">
          <mxGeometry x="310" y="50" width="60" height="30" as="geometry" />
        </mxCell>
        <mxCell id="vDmIGxy55OzrReuSafQs-106" value="1..1" style="text;html=1;align=center;verticalAlign=middle;whiteSpace=wrap;rounded=0;" vertex="1" parent="1">
          <mxGeometry x="670" y="20" width="60" height="30" as="geometry" />
        </mxCell>
        <mxCell id="vDmIGxy55OzrReuSafQs-107" value="1..1" style="text;html=1;align=center;verticalAlign=middle;whiteSpace=wrap;rounded=0;" vertex="1" parent="1">
          <mxGeometry x="490" y="20" width="60" height="30" as="geometry" />
        </mxCell>
        <mxCell id="vDmIGxy55OzrReuSafQs-108" value="1..N" style="text;html=1;align=center;verticalAlign=middle;whiteSpace=wrap;rounded=0;" vertex="1" parent="1">
          <mxGeometry x="1030" y="20" width="60" height="30" as="geometry" />
        </mxCell>
        <mxCell id="vDmIGxy55OzrReuSafQs-109" value="0..N" style="text;html=1;align=center;verticalAlign=middle;whiteSpace=wrap;rounded=0;" vertex="1" parent="1">
          <mxGeometry x="850" y="20" width="60" height="30" as="geometry" />
        </mxCell>
        <mxCell id="vDmIGxy55OzrReuSafQs-110" style="edgeStyle=orthogonalEdgeStyle;rounded=0;orthogonalLoop=1;jettySize=auto;html=1;exitX=0.5;exitY=1;exitDx=0;exitDy=0;" edge="1" parent="1" source="vDmIGxy55OzrReuSafQs-102" target="vDmIGxy55OzrReuSafQs-102">
          <mxGeometry relative="1" as="geometry" />
        </mxCell>
        <mxCell id="vDmIGxy55OzrReuSafQs-111" value="1..N" style="text;html=1;align=center;verticalAlign=middle;whiteSpace=wrap;rounded=0;" vertex="1" parent="1">
          <mxGeometry x="1000" y="250" width="60" height="30" as="geometry" />
        </mxCell>
        <mxCell id="vDmIGxy55OzrReuSafQs-112" value="1..1" style="text;html=1;align=center;verticalAlign=middle;whiteSpace=wrap;rounded=0;" vertex="1" parent="1">
          <mxGeometry x="1070" y="90" width="60" height="30" as="geometry" />
        </mxCell>
        <mxCell id="vDmIGxy55OzrReuSafQs-113" value="1..1" style="text;html=1;align=center;verticalAlign=middle;whiteSpace=wrap;rounded=0;" vertex="1" parent="1">
          <mxGeometry x="354" y="260" width="60" height="30" as="geometry" />
        </mxCell>
        <mxCell id="vDmIGxy55OzrReuSafQs-114" value="1..N" style="text;html=1;align=center;verticalAlign=middle;whiteSpace=wrap;rounded=0;" vertex="1" parent="1">
          <mxGeometry x="380" y="100" width="60" height="30" as="geometry" />
        </mxCell>
      </root>
    </mxGraphModel>
  </diagram>
</mxfile>
